# xmcd CD database file generated by Grip 3.2.0
# 
# Track frame offsets:
#       150
#       6245
#       23085
#       44005
#       62537
#       83425
#       104690
#       124807
#       144905
#       164640
#       181932
#       196710
# 
# Disc length: 2885 seconds
# 
# Revision: 4
# Processed by: cddbd v1.5.2PL0 Copyright (c) Steve Scherf et al.
# Submitted via: Grip 3.2.0
# 
DISCID=990b430c
DTITLE=Power of Seven - Up-Front
DYEAR=1992
DGENRE=Fusion
TTITLE0=When Something is Wrong with My Baby
TTITLE1=Mockingbird
TTITLE2=My Love It's Yours
TTITLE3=Shadows on a Screen
TTITLE4=Will It Go Round in Circles?
TTITLE5=Tears of My Heart
TTITLE6=Come As You Are
TTITLE7=Dancin' in the Streets
TTITLE8=California Blues
TTITLE9=Stranger in My Bed
TTITLE10=Gospel Medley
TTITLE11=Back-up Singer's Blues
EXTD=Recorded 1992\nSheffield Lab YEAR: 1992
EXTT0=
EXTT1=
EXTT2=
EXTT3=
EXTT4=
EXTT5=
EXTT6=
EXTT7=
EXTT8=
EXTT9=
EXTT10=
EXTT11=
PLAYORDER=
